<svg id="visual" viewBox="0 0 960 200" width="960" height="200" xmlns="http://www.w3.org/2000/svg" xmlns:xlink="http://www.w3.org/1999/xlink" version="1.1"><rect x="0" y="0" width="960" height="200" fill="#00FF85"></rect><path d="M0 149L16 153.3C32 157.7 64 166.3 96 165.8C128 165.3 160 155.7 192 151.7C224 147.7 256 149.3 288 151.2C320 153 352 155 384 159.5C416 164 448 171 480 170.3C512 169.7 544 161.3 576 158.8C608 156.3 640 159.7 672 163.7C704 167.7 736 172.3 768 172.5C800 172.7 832 168.3 864 166C896 163.7 928 163.3 944 163.2L960 163L960 0L944 0C928 0 896 0 864 0C832 0 800 0 768 0C736 0 704 0 672 0C640 0 608 0 576 0C544 0 512 0 480 0C448 0 416 0 384 0C352 0 320 0 288 0C256 0 224 0 192 0C160 0 128 0 96 0C64 0 32 0 16 0L0 0Z" fill="#00ff85"></path><path d="M0 146L16 144.2C32 142.3 64 138.7 96 134.2C128 129.7 160 124.3 192 120.5C224 116.7 256 114.3 288 119.3C320 124.3 352 136.7 384 141.2C416 145.7 448 142.3 480 141.3C512 140.3 544 141.7 576 137.2C608 132.7 640 122.3 672 122C704 121.7 736 131.3 768 131.7C800 132 832 123 864 124.3C896 125.7 928 137.3 944 143.2L960 149L960 0L944 0C928 0 896 0 864 0C832 0 800 0 768 0C736 0 704 0 672 0C640 0 608 0 576 0C544 0 512 0 480 0C448 0 416 0 384 0C352 0 320 0 288 0C256 0 224 0 192 0C160 0 128 0 96 0C64 0 32 0 16 0L0 0Z" fill="#aed521"></path><path d="M0 110L16 111.5C32 113 64 116 96 115.2C128 114.3 160 109.7 192 102.8C224 96 256 87 288 84.8C320 82.7 352 87.3 384 92C416 96.7 448 101.3 480 106C512 110.7 544 115.3 576 113.7C608 112 640 104 672 99.2C704 94.3 736 92.7 768 96.2C800 99.7 832 108.3 864 112.7C896 117 928 117 944 117L960 117L960 0L944 0C928 0 896 0 864 0C832 0 800 0 768 0C736 0 704 0 672 0C640 0 608 0 576 0C544 0 512 0 480 0C448 0 416 0 384 0C352 0 320 0 288 0C256 0 224 0 192 0C160 0 128 0 96 0C64 0 32 0 16 0L0 0Z" fill="#e5a300"></path><path d="M0 68L16 68.5C32 69 64 70 96 71.3C128 72.7 160 74.3 192 74.2C224 74 256 72 288 66.5C320 61 352 52 384 52.3C416 52.7 448 62.3 480 67.8C512 73.3 544 74.7 576 71.3C608 68 640 60 672 59.5C704 59 736 66 768 70.2C800 74.3 832 75.7 864 72.3C896 69 928 61 944 57L960 53L960 0L944 0C928 0 896 0 864 0C832 0 800 0 768 0C736 0 704 0 672 0C640 0 608 0 576 0C544 0 512 0 480 0C448 0 416 0 384 0C352 0 320 0 288 0C256 0 224 0 192 0C160 0 128 0 96 0C64 0 32 0 16 0L0 0Z" fill="#ff6730"></path><path d="M0 41L16 42.2C32 43.3 64 45.7 96 40.7C128 35.7 160 23.3 192 18.2C224 13 256 15 288 20.3C320 25.7 352 34.3 384 38.8C416 43.3 448 43.7 480 38.7C512 33.7 544 23.3 576 21.2C608 19 640 25 672 30.5C704 36 736 41 768 44.8C800 48.7 832 51.3 864 50.8C896 50.3 928 46.7 944 44.8L960 43L960 0L944 0C928 0 896 0 864 0C832 0 800 0 768 0C736 0 704 0 672 0C640 0 608 0 576 0C544 0 512 0 480 0C448 0 416 0 384 0C352 0 320 0 288 0C256 0 224 0 192 0C160 0 128 0 96 0C64 0 32 0 16 0L0 0Z" fill="#ff0066"></path></svg>