<svg id="visual" viewBox="0 0 960 200" width="960" height="200" xmlns="http://www.w3.org/2000/svg" xmlns:xlink="http://www.w3.org/1999/xlink" version="1.1"><path d="M0 55L14.5 55.7C29 56.3 58 57.7 87.2 59C116.3 60.3 145.7 61.7 174.8 61.3C204 61 233 59 262 59.7C291 60.3 320 63.7 349 59.7C378 55.7 407 44.3 436.2 43.7C465.3 43 494.7 53 523.8 61.3C553 69.7 582 76.3 611 74.3C640 72.3 669 61.7 698 60C727 58.3 756 65.7 785.2 67C814.3 68.3 843.7 63.7 872.8 62.3C902 61 931 63 945.5 64L960 65L960 0L945.5 0C931 0 902 0 872.8 0C843.7 0 814.3 0 785.2 0C756 0 727 0 698 0C669 0 640 0 611 0C582 0 553 0 523.8 0C494.7 0 465.3 0 436.2 0C407 0 378 0 349 0C320 0 291 0 262 0C233 0 204 0 174.8 0C145.7 0 116.3 0 87.2 0C58 0 29 0 14.5 0L0 0Z" fill="#00ff85"></path><path d="M0 101L14.5 101C29 101 58 101 87.2 101.7C116.3 102.3 145.7 103.7 174.8 106.3C204 109 233 113 262 115.7C291 118.3 320 119.7 349 118.7C378 117.7 407 114.3 436.2 114C465.3 113.7 494.7 116.3 523.8 118C553 119.7 582 120.3 611 117.7C640 115 669 109 698 105.7C727 102.3 756 101.7 785.2 100.3C814.3 99 843.7 97 872.8 97C902 97 931 99 945.5 100L960 101L960 63L945.5 62C931 61 902 59 872.8 60.3C843.7 61.7 814.3 66.3 785.2 65C756 63.7 727 56.3 698 58C669 59.7 640 70.3 611 72.3C582 74.3 553 67.7 523.8 59.3C494.7 51 465.3 41 436.2 41.7C407 42.3 378 53.7 349 57.7C320 61.7 291 58.3 262 57.7C233 57 204 59 174.8 59.3C145.7 59.7 116.3 58.3 87.2 57C58 55.7 29 54.3 14.5 53.7L0 53Z" fill="#77fe64"></path><path d="M0 137L14.5 139.7C29 142.3 58 147.7 87.2 149C116.3 150.3 145.7 147.7 174.8 147.7C204 147.7 233 150.3 262 150C291 149.7 320 146.3 349 148.3C378 150.3 407 157.7 436.2 158.7C465.3 159.7 494.7 154.3 523.8 151C553 147.7 582 146.3 611 145.7C640 145 669 145 698 143.3C727 141.7 756 138.3 785.2 137.3C814.3 136.3 843.7 137.7 872.8 141.3C902 145 931 151 945.5 154L960 157L960 99L945.5 98C931 97 902 95 872.8 95C843.7 95 814.3 97 785.2 98.3C756 99.7 727 100.3 698 103.7C669 107 640 113 611 115.7C582 118.3 553 117.7 523.8 116C494.7 114.3 465.3 111.7 436.2 112C407 112.3 378 115.7 349 116.7C320 117.7 291 116.3 262 113.7C233 111 204 107 174.8 104.3C145.7 101.7 116.3 100.3 87.2 99.7C58 99 29 99 14.5 99L0 99Z" fill="#abfb45"></path><path d="M0 173L14.5 173.3C29 173.7 58 174.3 87.2 174.3C116.3 174.3 145.7 173.7 174.8 174C204 174.3 233 175.7 262 177.3C291 179 320 181 349 182.3C378 183.7 407 184.3 436.2 183C465.3 181.7 494.7 178.3 523.8 177.7C553 177 582 179 611 179C640 179 669 177 698 175.3C727 173.7 756 172.3 785.2 171C814.3 169.7 843.7 168.3 872.8 169.7C902 171 931 175 945.5 177L960 179L960 155L945.5 152C931 149 902 143 872.8 139.3C843.7 135.7 814.3 134.3 785.2 135.3C756 136.3 727 139.7 698 141.3C669 143 640 143 611 143.7C582 144.3 553 145.7 523.8 149C494.7 152.3 465.3 157.7 436.2 156.7C407 155.7 378 148.3 349 146.3C320 144.3 291 147.7 262 148C233 148.3 204 145.7 174.8 145.7C145.7 145.7 116.3 148.3 87.2 147C58 145.7 29 140.3 14.5 137.7L0 135Z" fill="#d7f625"></path><path d="M0 201L14.5 201C29 201 58 201 87.2 201C116.3 201 145.7 201 174.8 201C204 201 233 201 262 201C291 201 320 201 349 201C378 201 407 201 436.2 201C465.3 201 494.7 201 523.8 201C553 201 582 201 611 201C640 201 669 201 698 201C727 201 756 201 785.2 201C814.3 201 843.7 201 872.8 201C902 201 931 201 945.5 201L960 201L960 177L945.5 175C931 173 902 169 872.8 167.7C843.7 166.3 814.3 167.7 785.2 169C756 170.3 727 171.7 698 173.3C669 175 640 177 611 177C582 177 553 175 523.8 175.7C494.7 176.3 465.3 179.7 436.2 181C407 182.3 378 181.7 349 180.3C320 179 291 177 262 175.3C233 173.7 204 172.3 174.8 172C145.7 171.7 116.3 172.3 87.2 172.3C58 172.3 29 171.7 14.5 171.3L0 171Z" fill="#ffef00"></path></svg>