<svg id="visual" viewBox="0 0 900 200" width="900" height="200" xmlns="http://www.w3.org/2000/svg" xmlns:xlink="http://www.w3.org/1999/xlink" version="1.1"><rect x="0" y="0" width="900" height="200" fill="#ff0066"></rect><path d="M0 67L25 77C50 87 100 107 150 118.5C200 130 250 133 300 117.5C350 102 400 68 450 59.8C500 51.7 550 69.3 600 84.7C650 100 700 113 750 112.5C800 112 850 98 875 91L900 84L900 0L875 0C850 0 800 0 750 0C700 0 650 0 600 0C550 0 500 0 450 0C400 0 350 0 300 0C250 0 200 0 150 0C100 0 50 0 25 0L0 0Z" fill="#3c31dd" stroke-linecap="round" stroke-linejoin="miter"></path></svg>